<svg width="380" height="380" viewBox="0 0 380 380" fill="none" xmlns="http://www.w3.org/2000/svg">
<circle cx="190" cy="190" r="190" fill="#9287FF"/>
<mask id="mask0" mask-type="alpha" maskUnits="userSpaceOnUse" x="0" y="0" width="380" height="380">
<circle cx="190" cy="190" r="190" fill="#FFEDEF"/>
</mask>
<g mask="url(#mask0)">
<g clip-path="url(#clip0)">
<path d="M244 369.5C229.6 349.5 218.333 310.834 217 291.5L148.5 262L120 369.5H244Z" fill="#AC6651" stroke="black" stroke-width="4"/>
<mask id="mask1" mask-type="alpha" maskUnits="userSpaceOnUse" x="120" y="262" width="124" height="118">
<path d="M244 379.5C229.6 359.5 218.333 310.834 217 291.5L148.5 262L120 379.5H244Z" fill="#AC6651"/>
</mask>
<g mask="url(#mask1)">
<g style="mix-blend-mode:multiply">
<ellipse cx="214" cy="260" rx="59" ry="54" fill="black"/>
</g>
</g>
<mask id="path-6-inside-1" fill="white">
<path fill-rule="evenodd" clip-rule="evenodd" d="M273.886 200.917C273.859 200.801 273.831 200.685 273.803 200.569C273.776 200.454 273.748 200.338 273.719 200.222L257.323 131.786C257.306 131.718 257.29 131.65 257.274 131.582C257.258 131.514 257.242 131.446 257.225 131.379L257.152 131.075L257.151 131.076C246.933 89.6308 205.156 64.1472 163.582 74.1081C122.008 84.0689 96.3155 125.717 105.988 167.293L105.986 167.293L122.978 238.211L122.992 238.208C133.594 279.112 175.062 304.149 216.329 294.261C257.597 284.374 283.216 243.264 274.131 201.996L274.144 201.993L273.886 200.917Z"/>
</mask>
<path fill-rule="evenodd" clip-rule="evenodd" d="M273.886 200.917C273.859 200.801 273.831 200.685 273.803 200.569C273.776 200.454 273.748 200.338 273.719 200.222L257.323 131.786C257.306 131.718 257.29 131.65 257.274 131.582C257.258 131.514 257.242 131.446 257.225 131.379L257.152 131.075L257.151 131.076C246.933 89.6308 205.156 64.1472 163.582 74.1081C122.008 84.0689 96.3155 125.717 105.988 167.293L105.986 167.293L122.978 238.211L122.992 238.208C133.594 279.112 175.062 304.149 216.329 294.261C257.597 284.374 283.216 243.264 274.131 201.996L274.144 201.993L273.886 200.917Z" fill="#AC6651"/>
<path d="M273.886 200.917L269.992 201.831L269.994 201.84L269.996 201.849L273.886 200.917ZM273.719 200.222L269.83 201.154L269.832 201.163L269.834 201.172L273.719 200.222ZM257.323 131.786L253.43 132.708L253.433 132.718L257.323 131.786ZM257.225 131.379L253.335 132.311L253.338 132.321L257.225 131.379ZM257.152 131.075L261.042 130.143L260.111 126.255L256.222 127.185L257.152 131.075ZM257.151 131.076L253.267 132.033L254.218 135.89L258.081 134.966L257.151 131.076ZM163.582 74.1081L162.65 70.2182L163.582 74.1081ZM105.988 167.293L106.922 171.182L110.784 170.255L109.884 166.386L105.988 167.293ZM105.986 167.293L105.052 163.404L101.165 164.337L102.096 168.225L105.986 167.293ZM122.978 238.211L119.088 239.143L120.02 243.035L123.911 242.101L122.978 238.211ZM122.992 238.208L126.864 237.204L125.878 233.401L122.058 234.318L122.992 238.208ZM216.329 294.261L215.397 290.371H215.397L216.329 294.261ZM274.131 201.996L273.2 198.106L269.381 199.021L270.225 202.856L274.131 201.996ZM274.144 201.993L275.075 205.883L278.966 204.951L278.034 201.061L274.144 201.993ZM277.78 200.002C277.751 199.881 277.722 199.759 277.693 199.637L269.914 201.502C269.94 201.611 269.966 201.721 269.992 201.831L277.78 200.002ZM277.693 199.637C277.664 199.516 277.635 199.395 277.605 199.273L269.834 201.172C269.861 201.281 269.887 201.391 269.914 201.502L277.693 199.637ZM253.433 132.718L269.83 201.154L277.609 199.29L261.212 130.854L253.433 132.718ZM261.215 130.863C261.198 130.793 261.181 130.722 261.164 130.65L253.384 132.514C253.4 132.578 253.415 132.643 253.43 132.708L261.215 130.863ZM261.164 130.65C261.147 130.579 261.13 130.508 261.113 130.436L253.338 132.321C253.353 132.385 253.369 132.449 253.384 132.514L261.164 130.65ZM253.262 132.007L253.335 132.311L261.115 130.447L261.042 130.143L253.262 132.007ZM258.081 134.966L258.083 134.966L256.222 127.185L256.221 127.185L258.081 134.966ZM261.035 130.118C250.291 86.5398 206.364 59.7447 162.65 70.2182L164.514 77.998C203.949 68.5498 243.575 92.7219 253.267 132.033L261.035 130.118ZM162.65 70.2182C118.936 80.6917 91.9216 124.484 102.092 168.199L109.884 166.386C100.709 126.951 125.08 87.4461 164.514 77.998L162.65 70.2182ZM106.92 171.183L106.922 171.182L105.054 163.403L105.052 163.404L106.92 171.183ZM126.868 237.279L109.876 166.361L102.096 168.225L119.088 239.143L126.868 237.279ZM122.058 234.318L122.044 234.322L123.911 242.101L123.925 242.097L122.058 234.318ZM119.12 239.211C130.268 282.223 173.869 308.548 217.261 298.151L215.397 290.371C176.254 299.75 136.92 276.002 126.864 237.204L119.12 239.211ZM217.261 298.151C260.653 287.755 287.591 244.53 278.038 201.136L270.225 202.856C278.842 241.999 254.541 280.993 215.397 290.371L217.261 298.151ZM273.212 198.103L273.2 198.106L275.063 205.886L275.075 205.883L273.212 198.103ZM269.996 201.849L270.254 202.925L278.034 201.061L277.776 199.985L269.996 201.849Z" fill="black" mask="url(#path-6-inside-1)"/>
</g>
<path d="M179.5 227.5C182 244.5 210.5 252.5 236.5 233" stroke="black" stroke-width="4"/>
<path d="M219 139.214C224.667 136.548 238 134.114 246 145.714" stroke="black" stroke-width="4" stroke-linecap="round"/>
<path d="M143.579 164.521C145.65 158.61 153.261 147.396 167.142 149.822" stroke="black" stroke-width="4" stroke-linecap="round"/>
<path d="M269.177 89.3965C260.855 129.294 162.499 134.896 142.677 134.896C90.6548 140.823 115.625 203.262 125.177 234.396C117.677 235.396 118.677 244.396 89.6772 172.896C66.4772 115.696 132.183 80.8337 180.999 68.9995C229.815 57.1653 248.499 40.502 248.499 40.502C269.177 49 274.116 65.7185 269.177 89.3965Z" fill="black"/>
<path d="M264.134 162.947L248.316 109.507L258.354 100.364C269.109 137.452 269.601 158.988 264.134 162.947Z" fill="black"/>
<path d="M139 208C133.4 180.8 119.333 185.667 110 187L100 143L140.584 134.506C141.336 134.266 142.141 134.095 143 134L140.584 134.506C122.433 140.299 134.956 186.796 150 206L139 208Z" fill="black"/>
<path d="M83.9887 105.363C92.8341 100.909 103.281 103.487 107.398 105.333L95.6273 120.213C98.6625 115.357 89.1329 108.29 83.9887 105.363Z" fill="black"/>
<path d="M69 122.5C80.6 115.7 91.8333 118 96 120L91.5 135.5C90.3 127.1 76 123.333 69 122.5Z" fill="black"/>
<path fill-rule="evenodd" clip-rule="evenodd" d="M157.287 180.073C157.401 180.886 158.434 181.067 159.009 180.481C161.474 177.965 165.264 176.116 169.663 175.594C172.258 175.285 174.754 175.475 176.979 176.066C177.733 176.266 178.474 175.629 178.21 174.895C176.545 170.25 171.845 167.196 166.736 167.803C160.794 168.509 156.55 173.898 157.256 179.839C157.266 179.917 157.276 179.995 157.287 180.073Z" fill="#171921"/>
<path fill-rule="evenodd" clip-rule="evenodd" d="M221.385 170.073C221.498 170.886 222.531 171.067 223.106 170.482C225.549 167.996 229.298 166.17 233.648 165.653C236.213 165.348 238.68 165.535 240.88 166.117C241.634 166.316 242.375 165.679 242.111 164.946C240.456 160.352 235.804 157.335 230.748 157.935C224.862 158.635 220.658 163.973 221.357 169.859C221.366 169.93 221.375 170.002 221.385 170.073Z" fill="#171921"/>
<path d="M203.687 180.056C203.89 183.899 205.385 192.138 209.735 194.354C215.174 197.124 210.91 206.306 200.729 205.718" stroke="#171921" stroke-width="4"/>
<path d="M124.5 187.176C122.17 186.408 119.655 186 117.08 186C106.587 186 98.0801 192.5 99.08 204.5C100.122 217 107.587 221.5 118.08 221.5C119.248 221.5 120.391 221.397 121.5 221.201C122.711 220.987 123.881 220.661 125 220.235" stroke="#171921" stroke-width="8"/>
<path d="M125.5 220.036C123.22 220.979 120.713 221.5 118.08 221.5C107.587 221.5 100.122 217 99.08 204.5C98.0801 192.5 106.587 186 117.08 186C120.217 186 123.267 186.606 126 187.73L125.5 220.036Z" fill="#AC6651"/>
<path d="M121.5 194.5C117.5 192.667 108.7 191.7 105.5 202.5" stroke="#171921" stroke-width="4"/>
<path d="M111 195C113.167 196.833 117.3 202.5 116.5 210.5" stroke="#171921" stroke-width="4"/>
<path d="M323.366 389.863H50.4563C50.4907 389.793 50.5255 389.722 50.5604 389.651C55.1052 380.395 63.4899 363.319 74.4025 348.041C80.5961 339.37 87.5303 331.387 94.9416 325.772C102.354 320.156 110.061 317.04 117.892 317.726C132.946 319.043 146.355 327.285 159.817 335.56C161.092 336.344 162.368 337.129 163.646 337.908C178.131 346.735 193.005 354.931 209.365 351.345C214.899 350.131 218.629 347.535 220.976 344.18C223.29 340.873 224.122 337.029 224.266 333.517C224.41 329.999 223.871 326.674 223.311 324.256C223.049 323.126 222.779 322.179 222.564 321.484C226.189 317.835 230.027 315.71 233.989 314.753C238.284 313.716 242.876 314.016 247.707 315.445C257.437 318.323 267.847 325.697 278.007 335.179C296.621 352.552 313.7 376.323 323.366 389.863Z" fill="#FFEBA4" stroke="black" stroke-width="4.27431"/>
</g>
<defs>
<clipPath id="clip0">
<rect width="200" height="320" fill="white" transform="translate(90 50)"/>
</clipPath>
</defs>
</svg>
